<svg width="25" height="25" viewBox="0 0 25 25" fill="none" xmlns="http://www.w3.org/2000/svg">
<path fill-rule="evenodd" clip-rule="evenodd" d="M14.8808 4.21358C14.8808 4.82932 16.142 5.2908 16.142 5.90756C16.142 6.52431 15.2438 6.18047 14.4571 6.12505C13.6209 6.06612 12.7696 5.5188 12.7009 4.61791C12.6321 3.71612 13.3071 2.92952 14.208 2.86076C14.6772 2.825 15.5876 2.7071 15.9414 3.26949C16.2295 3.7276 14.8808 3.44089 14.8808 4.21358ZM10.7165 18.5675C10.7165 16.5789 9.07608 14.9607 7.0585 14.9607C5.0417 14.9607 3.40048 16.5789 3.40048 18.5675C3.40048 20.556 5.0417 22.1743 7.0585 22.1743C9.07608 22.1743 10.7165 20.556 10.7165 18.5675ZM7.0585 20.5712C8.17948 20.5712 9.09072 19.6728 9.09072 18.5675C9.09072 17.4622 8.17948 16.5637 7.0585 16.5637C5.93833 16.5637 5.02627 17.4622 5.02627 18.5675C5.02627 19.6728 5.93833 20.5712 7.0585 20.5712ZM21.5995 15.9662C21.5995 14.2242 20.2072 12.8071 18.4949 12.8071C16.7832 12.8071 15.3904 14.2242 15.3904 15.9662C15.3904 17.7077 16.7832 19.1248 18.4949 19.1248C20.2072 19.1248 21.5995 17.7077 21.5995 15.9662ZM18.4949 17.721C19.4463 17.721 20.2197 16.9342 20.2197 15.9662C20.2197 14.9984 19.4463 14.2115 18.4949 14.2115C17.5442 14.2115 16.7702 14.9984 16.7702 15.9662C16.7702 16.9342 17.5442 17.721 18.4949 17.721ZM15.7921 8.509C15.4347 8.40465 15.0892 8.25631 14.7967 8.02602C13.8395 7.27246 12.3875 6.06612 12.3875 6.06612C12.0368 5.75124 11.5277 5.72384 11.15 5.96826C10.9988 6.06608 10.8709 6.19681 10.7247 6.3019L6.66876 9.21791C5.99912 9.81256 5.94463 11.0465 6.29733 11.4867C6.74374 12.0447 6.93661 12.2036 7.89642 12.7518C8.93841 13.3474 11.2268 14.292 11.2268 14.292L12.1842 17.4961C12.3152 17.9345 12.7793 18.1813 13.2161 18.0446C13.6334 17.9141 13.8752 17.4795 13.7661 17.0561L12.8241 13.4001C12.7609 13.1897 12.622 13.0102 12.4342 12.8961L9.34374 11.0188L12.7634 8.85988C13.0941 9.10368 13.6546 9.4683 14.0183 9.70116C14.2506 9.84984 14.5057 9.95617 14.7747 10.0167C15.3002 10.135 16.2368 10.3397 16.9753 10.4674C17.3205 10.5272 17.6491 10.3188 17.7599 9.98649C17.8974 9.57399 17.651 9.12921 17.2382 8.9927C17.0651 8.93547 16.8914 8.87491 16.7175 8.81429C16.4087 8.70661 16.0993 8.59871 15.7921 8.509Z" fill="black"/>
</svg>
